<svg xmlns="http://www.w3.org/2000/svg" xmlns:xlink="http://www.w3.org/1999/xlink" width="500" zoomAndPan="magnify" viewBox="0 0 375 374.999991" height="500" preserveAspectRatio="xMidYMid meet" version="1.0"><defs><clipPath id="3bffa3d5c4"><path d="M 77.714844 77.714844 L 297.464844 77.714844 L 297.464844 297.464844 L 77.714844 297.464844 Z M 77.714844 77.714844 " clip-rule="nonzero"/></clipPath></defs><g clip-path="url(#3bffa3d5c4)"><path fill="#e00079" d="M 187.589844 297.464844 C 248.277344 297.464844 297.464844 248.277344 297.464844 187.589844 C 297.464844 126.90625 248.277344 77.714844 187.589844 77.714844 C 126.90625 77.714844 77.714844 126.90625 77.714844 187.589844 C 77.714844 248.277344 126.90625 297.464844 187.589844 297.464844 " fill-opacity="1" fill-rule="nonzero"/></g><path fill="#fff45f" d="M 154.007812 207.898438 C 151.035156 210.757812 147.191406 212.609375 142.910156 212.609375 C 140.925781 212.609375 139.042969 212.199219 137.28125 211.488281 L 137.3125 224.492188 C 137.179688 224.96875 137.25 225.46875 137.496094 225.894531 C 137.738281 226.320312 138.148438 226.625 138.625 226.757812 C 139.957031 227.167969 141.402344 227.398438 142.910156 227.398438 C 147.191406 227.398438 151.046875 225.546875 154.007812 222.691406 C 156.976562 225.539062 160.835938 227.398438 165.105469 227.398438 C 169.378906 227.398438 173.246094 225.546875 176.207031 222.691406 C 179.175781 225.539062 183.023438 227.390625 187.304688 227.398438 C 191.589844 227.398438 195.433594 225.546875 198.394531 222.691406 C 201.367188 225.539062 205.222656 227.398438 209.496094 227.398438 C 213.765625 227.398438 217.625 225.546875 220.59375 222.691406 C 223.566406 225.539062 227.421875 227.398438 231.695312 227.398438 C 233.199219 227.398438 234.644531 227.167969 235.976562 226.757812 C 236.453125 226.636719 236.851562 226.320312 237.105469 225.894531 C 237.351562 225.46875 237.421875 224.957031 237.289062 224.492188 L 237.320312 211.488281 C 235.570312 212.199219 233.675781 212.609375 231.703125 212.609375 C 227.421875 212.609375 223.574219 210.757812 220.605469 207.898438 C 217.632812 210.757812 213.789062 212.609375 209.503906 212.609375 C 205.222656 212.609375 201.367188 210.757812 198.40625 207.898438 C 195.433594 210.746094 191.589844 212.609375 187.316406 212.609375 C 183.042969 212.609375 179.1875 210.757812 176.214844 207.898438 C 173.246094 210.757812 169.390625 212.609375 165.117188 212.609375 C 160.84375 212.609375 156.988281 210.757812 154.019531 207.898438 Z M 153.957031 188.527344 C 153.40625 188.546875 152.898438 188.8125 152.5625 189.238281 C 148.6875 194 142.726562 193.847656 139.257812 193.542969 C 138.175781 193.449219 137.25 194.304688 137.25 195.382812 L 137.273438 207.398438 C 138.992188 208.355469 140.882812 208.90625 142.898438 208.90625 C 146.664062 208.90625 150.050781 207.03125 152.582031 204.011719 C 153.324219 203.125 154.679688 203.125 155.421875 204.011719 C 157.945312 207.023438 161.34375 208.90625 165.105469 208.90625 C 168.871094 208.90625 172.269531 207.03125 174.792969 204.011719 C 175.128906 203.605469 175.625 203.371094 176.144531 203.351562 C 176.714844 203.328125 177.265625 203.574219 177.628906 204.011719 C 180.152344 207.023438 183.542969 208.90625 187.304688 208.90625 C 191.070312 208.90625 194.457031 207.03125 196.980469 204.011719 C 197.347656 203.574219 197.898438 203.328125 198.464844 203.351562 C 198.996094 203.359375 199.484375 203.605469 199.820312 204.011719 C 202.34375 207.023438 205.742188 208.90625 209.503906 208.90625 C 213.269531 208.90625 216.667969 207.03125 219.191406 204.011719 C 219.933594 203.125 221.285156 203.125 222.027344 204.011719 C 224.550781 207.023438 227.949219 208.90625 231.714844 208.90625 C 233.726562 208.90625 235.621094 208.355469 237.339844 207.398438 L 237.359375 195.382812 C 237.359375 194.304688 236.433594 193.449219 235.355469 193.542969 C 231.886719 193.847656 225.914062 194 222.046875 189.238281 C 221.714844 188.800781 221.203125 188.546875 220.65625 188.527344 C 219.992188 188.507812 219.382812 188.832031 219.027344 189.390625 C 216.523438 192.300781 213.199219 194.101562 209.515625 194.101562 C 205.832031 194.101562 202.363281 192.230469 199.828125 189.21875 C 199.492188 188.8125 198.996094 188.578125 198.464844 188.558594 C 197.867188 188.535156 197.359375 188.792969 197.023438 189.1875 L 196.980469 189.21875 C 194.457031 192.230469 191.070312 194.101562 187.316406 194.101562 C 183.550781 194.101562 180.164062 192.230469 177.640625 189.21875 C 177.621094 189.199219 177.621094 189.1875 177.609375 189.1875 C 177.265625 188.800781 176.765625 188.535156 176.164062 188.558594 C 175.636719 188.566406 175.148438 188.8125 174.800781 189.21875 C 172.28125 192.230469 168.882812 194.101562 165.117188 194.101562 C 161.351562 194.101562 158.109375 192.300781 155.605469 189.390625 C 155.257812 188.832031 154.636719 188.507812 153.988281 188.527344 Z M 203.269531 153.558594 C 202.476562 153.507812 201.671875 153.507812 200.878906 153.570312 C 194.488281 154.046875 188.230469 158.382812 185.921875 164.882812 C 183.949219 170.417969 184.113281 179.441406 187.277344 186.757812 C 187.792969 187.96875 188.414062 189.097656 189.085938 190.195312 C 190.9375 189.757812 192.65625 188.628906 194.152344 186.839844 C 194.183594 186.808594 194.203125 186.785156 194.234375 186.757812 C 194.347656 186.625 194.457031 186.511719 194.589844 186.402344 L 194.234375 186.757812 C 195.242188 185.605469 196.878906 184.804688 198.589844 184.855469 C 200.164062 184.90625 201.640625 185.628906 202.65625 186.828125 C 204.621094 189.167969 206.972656 190.386719 209.515625 190.386719 C 212.058594 190.386719 214.234375 189.25 216.167969 187.03125 C 217.246094 185.605469 218.976562 184.773438 220.777344 184.832031 C 222.414062 184.882812 223.960938 185.667969 224.96875 186.960938 L 224.917969 186.890625 C 227.59375 190.175781 231.824219 190.132812 235.03125 189.847656 C 235.03125 189.847656 235.050781 189.847656 235.050781 189.847656 C 235.824219 189.789062 236.585938 189.890625 237.289062 190.132812 L 237.289062 173.746094 C 237.289062 172.941406 236.769531 172.21875 236.007812 171.972656 C 235.234375 171.730469 234.398438 172.003906 233.929688 172.667969 C 230.492188 177.476562 221.773438 180.285156 214.074219 179.613281 C 210.21875 179.277344 206.6875 178.109375 204.234375 176.214844 C 201.773438 174.324219 200.296875 171.832031 200.296875 168.199219 C 200.296875 168.199219 200.296875 168.179688 200.296875 168.167969 C 200.238281 163.347656 202.6875 161.097656 206.105469 160.539062 C 209.453125 159.980469 213.847656 161.445312 217.164062 165.433594 C 217.136719 165.339844 217.105469 165.238281 217.074219 165.148438 C 214.152344 157.261719 208.855469 153.925781 203.300781 153.539062 Z M 192.066406 138.613281 C 184.4375 138.613281 178.425781 141.371094 173.613281 145.402344 C 168.800781 149.429688 165.085938 154.660156 161.648438 159.777344 C 158.210938 164.894531 155.023438 169.890625 151.496094 173.488281 C 147.953125 177.089844 144.230469 179.300781 139.246094 179.300781 C 138.226562 179.300781 137.40625 180.132812 137.40625 181.152344 L 137.40625 190.125 C 138.085938 189.890625 138.820312 189.789062 139.582031 189.847656 L 139.589844 189.847656 C 142.796875 190.132812 147.027344 190.175781 149.703125 186.890625 L 149.664062 186.960938 C 150.007812 186.523438 150.621094 186.554688 151.066406 186.238281 C 151.738281 185.382812 152.757812 184.863281 153.835938 184.8125 C 153.835938 184.8125 153.90625 184.882812 153.957031 184.882812 L 153.957031 184.8125 L 153.976562 184.8125 C 155.238281 184.8125 156.417969 185.476562 157.089844 186.542969 C 157.597656 186.929688 158.371094 186.847656 158.71875 187.398438 L 158.390625 186.960938 C 160.335938 189.21875 162.625 190.378906 165.105469 190.378906 C 167.589844 190.378906 169.992188 189.15625 171.945312 186.816406 L 171.964844 186.816406 C 172.980469 185.605469 174.457031 184.882812 176.035156 184.832031 C 177.742188 184.78125 179.378906 185.578125 180.386719 186.734375 C 180.417969 186.757812 180.4375 186.785156 180.46875 186.816406 C 181.742188 188.332031 183.175781 189.371094 184.710938 189.921875 C 184.425781 189.351562 184.152344 188.78125 183.898438 188.203125 C 180.335938 179.949219 180.050781 170.355469 182.453125 163.621094 C 185.292969 155.65625 192.757812 150.46875 200.59375 149.867188 C 208.4375 149.277344 216.707031 153.582031 220.511719 163.867188 C 220.554688 163.976562 220.59375 164.109375 220.632812 164.222656 C 220.59375 159.328125 219.375 153.050781 215.191406 147.84375 C 210.929688 142.542969 203.582031 138.605469 192.078125 138.605469 Z M 192.066406 138.613281 " fill-opacity="1" fill-rule="nonzero"/><path fill="#ffffff" d="M 236.800781 265.5625 L 232.792969 259.316406 L 232.84375 246.558594 L 229.128906 248.9375 L 229.3125 257.472656 L 221.582031 253.769531 L 217.867188 256.152344 L 229.535156 261.398438 L 233.546875 267.648438 L 236.789062 265.5625 Z M 214.5625 266.019531 L 210.785156 267.503906 L 208.984375 262.945312 L 212.761719 261.460938 C 214.203125 260.890625 215.628906 261.320312 216.1875 262.742188 C 216.75 264.167969 215.996094 265.449219 214.550781 266.019531 M 224.46875 272.683594 L 218.140625 267.75 C 219.789062 266.609375 221.03125 264.269531 219.863281 261.289062 C 218.628906 258.15625 215.566406 256.699219 212.058594 258.082031 L 204.164062 261.195312 L 210.816406 278.066406 L 214.410156 276.652344 L 212.046875 270.660156 L 214.683594 269.621094 L 220.359375 274.3125 L 224.480469 272.683594 Z M 198.394531 273.761719 L 192.789062 274.472656 L 194.609375 266.375 L 198.40625 273.761719 Z M 205.742188 279.347656 L 196.523438 262.234375 L 191.722656 262.84375 L 187.050781 281.71875 L 191.425781 281.15625 L 192.167969 277.964844 L 199.878906 276.976562 L 201.375 279.886719 L 205.75 279.328125 Z M 177.050781 271.015625 L 173 270.710938 L 173.378906 265.824219 L 177.417969 266.132812 C 178.964844 266.242188 180.0625 267.261719 179.941406 268.777344 C 179.828125 270.292969 178.585938 271.125 177.039062 271.015625 M 183.054688 281.339844 L 179.511719 274.148438 C 181.496094 273.832031 183.632812 272.285156 183.878906 269.082031 C 184.132812 265.714844 182.015625 263.078125 178.25 262.792969 L 169.785156 262.152344 L 168.414062 280.230469 L 172.257812 280.527344 L 172.746094 274.097656 L 175.566406 274.3125 L 178.628906 281.003906 L 183.042969 281.339844 Z M 157.261719 273.496094 L 152.554688 271.898438 L 153.90625 267.902344 L 158.617188 269.5 C 160.0625 269.988281 160.519531 271.175781 160.152344 272.265625 C 159.734375 273.496094 158.65625 273.976562 157.261719 273.496094 M 159.550781 266.324219 L 154.964844 264.777344 L 156.226562 261.035156 L 160.8125 262.582031 C 162.054688 262.996094 162.554688 264.054688 162.1875 265.144531 C 161.820312 266.222656 160.785156 266.742188 159.550781 266.324219 M 157.152344 276.984375 C 160.425781 278.09375 162.839844 276.621094 163.714844 274.035156 C 164.445312 271.867188 163.582031 269.601562 161.851562 268.695312 C 163.582031 268.910156 165.414062 267.921875 166.144531 265.753906 C 166.929688 263.464844 165.953125 260.808594 162.6875 259.703125 L 153.640625 256.640625 L 147.832031 273.8125 L 157.160156 276.964844 Z M 142.347656 270.871094 L 150.621094 254.738281 L 147.191406 252.976562 L 138.921875 269.113281 L 142.359375 270.871094 Z M 134.402344 266.355469 L 136.375 263.585938 L 130.128906 259.140625 L 138.675781 247.136719 L 135.53125 244.898438 L 125.023438 259.679688 L 134.414062 266.363281 Z M 134.402344 266.355469 " fill-opacity="1" fill-rule="nonzero"/><path fill="#ffffff" d="M 263.851562 181.667969 L 281.707031 178.484375 L 281.023438 174.660156 L 274.015625 175.910156 L 272.511719 167.476562 L 279.519531 166.226562 L 278.839844 162.429688 L 260.984375 165.617188 L 261.664062 169.421875 L 269.164062 168.078125 L 270.667969 176.511719 L 263.171875 177.855469 L 263.851562 181.679688 Z M 257.054688 157.253906 C 258.703125 160.894531 261.644531 162.074219 264.238281 162.328125 L 264.332031 158.648438 C 262.652344 158.566406 260.941406 157.558594 260.167969 155.839844 C 258.816406 152.835938 260.128906 149.621094 263.25 148.207031 C 266.375 146.792969 269.671875 147.933594 271.023438 150.933594 C 271.796875 152.644531 271.402344 154.609375 270.382812 155.910156 L 273.230469 158.261719 C 274.757812 156.164062 275.785156 153.164062 274.136719 149.519531 C 271.898438 144.566406 266.699219 142.296875 261.613281 144.597656 C 256.539062 146.894531 254.796875 152.296875 257.046875 157.253906 M 254.917969 139.652344 L 251.429688 135.207031 L 259.316406 132.601562 Z M 253.890625 148.820312 L 263.832031 132.113281 L 260.839844 128.308594 L 242.242188 133.996094 L 244.96875 137.457031 L 248.09375 136.457031 L 252.894531 142.574219 L 251.164062 145.351562 L 253.890625 148.808594 Z M 241.429688 133.578125 L 243.648438 131.015625 L 236.863281 125.144531 L 239.546875 122.042969 L 246.191406 127.789062 L 248.410156 125.226562 L 241.765625 119.476562 L 244.277344 116.578125 L 251.0625 122.460938 L 253.28125 119.894531 L 243.585938 111.492188 L 231.714844 125.195312 L 241.410156 133.597656 Z M 225.8125 117.953125 L 221.378906 115.683594 L 223.300781 111.929688 L 227.734375 114.199219 C 229.089844 114.890625 229.375 116.140625 228.855469 117.148438 C 228.253906 118.308594 227.125 118.613281 225.8125 117.953125 M 229.128906 111.1875 L 224.816406 108.980469 L 226.617188 105.46875 L 230.929688 107.675781 C 232.089844 108.265625 232.4375 109.394531 231.917969 110.414062 C 231.398438 111.429688 230.300781 111.789062 229.140625 111.1875 M 225.191406 121.382812 C 228.265625 122.949219 230.878906 121.847656 232.109375 119.425781 C 233.160156 117.394531 232.628906 115.023438 231.050781 113.871094 C 232.742188 114.339844 234.683594 113.628906 235.730469 111.59375 C 236.832031 109.4375 236.273438 106.667969 233.1875 105.101562 L 224.695312 100.75 L 216.421875 116.894531 L 225.183594 121.382812 Z M 206.585938 113.375 L 208.875 95.378906 L 205.046875 94.890625 L 203.613281 106.191406 L 196.714844 93.832031 L 192.78125 93.332031 L 190.492188 111.320312 L 194.316406 111.808594 L 195.8125 100.078125 L 202.902344 112.894531 L 206.59375 113.363281 Z M 178.648438 109 C 175.332031 109.417969 172.871094 107.128906 172.441406 103.78125 C 172.015625 100.402344 173.824219 97.59375 177.140625 97.179688 C 180.460938 96.761719 182.941406 99.019531 183.367188 102.386719 C 183.796875 105.734375 181.964844 108.574219 178.636719 109 M 179.074219 112.398438 C 184.527344 111.707031 187.996094 107.320312 187.304688 101.898438 C 186.625 96.476562 182.167969 93.097656 176.714844 93.789062 C 171.292969 94.472656 167.824219 98.867188 168.515625 104.289062 C 169.207031 109.710938 173.652344 113.089844 179.085938 112.398438 M 164.050781 115.335938 L 159.328125 101.378906 L 164.324219 99.691406 L 163.234375 96.476562 L 149.53125 101.113281 L 150.621094 104.328125 L 155.644531 102.632812 L 160.367188 116.589844 L 164.039062 115.347656 Z M 153.710938 119.09375 L 143.925781 103.820312 L 140.648438 105.917969 L 144.496094 111.917969 L 137.28125 116.546875 L 133.4375 110.546875 L 130.191406 112.632812 L 139.976562 127.902344 L 143.222656 125.816406 L 139.113281 119.40625 L 146.328125 114.777344 L 150.4375 121.1875 L 153.703125 119.09375 Z M 133.007812 135.328125 C 135.277344 132.949219 136.082031 130.140625 135.859375 127.382812 L 130.820312 122.582031 L 124.859375 128.839844 L 127.300781 131.15625 L 130.609375 127.699219 L 132.183594 129.203125 C 132.175781 130.203125 131.636719 131.796875 130.527344 132.957031 C 128.257812 135.339844 124.769531 135.328125 122.296875 132.957031 C 119.8125 130.589844 119.632812 127.109375 121.910156 124.726562 C 123.242188 123.335938 125.105469 122.957031 126.589844 123.253906 L 127.546875 119.734375 C 125.054688 119.234375 122.042969 119.632812 119.4375 122.367188 C 115.773438 126.203125 115.410156 131.871094 119.570312 135.828125 C 123.699219 139.765625 129.378906 139.164062 133.039062 135.328125 M 125.074219 144.445312 L 109.804688 134.65625 L 107.71875 137.902344 L 122.988281 147.691406 Z M 109.46875 152.195312 L 107.800781 155.890625 L 103.332031 153.875 L 105 150.183594 C 105.640625 148.769531 106.964844 148.085938 108.347656 148.707031 C 109.730469 149.339844 110.097656 150.78125 109.457031 152.195312 M 121.226562 150.082031 L 113.253906 150.945312 C 113.640625 148.972656 112.90625 146.4375 109.976562 145.117188 C 106.902344 143.722656 103.699219 144.8125 102.144531 148.257812 L 98.644531 155.992188 L 115.175781 163.457031 L 116.761719 159.9375 L 110.890625 157.285156 L 112.0625 154.699219 L 119.40625 154.109375 L 121.226562 150.070312 Z M 110.015625 171.179688 L 109.140625 176.085938 L 104.992188 175.339844 L 105.867188 170.4375 C 106.128906 168.941406 107.238281 168.3125 108.367188 168.503906 C 109.652344 168.738281 110.28125 169.726562 110.015625 171.171875 M 102.582031 169.992188 L 101.726562 174.761719 L 97.839844 174.070312 L 98.695312 169.296875 C 98.929688 168.015625 99.894531 167.355469 101.023438 167.558594 C 102.152344 167.761719 102.8125 168.707031 102.582031 169.992188 M 113.484375 170.773438 C 114.097656 167.375 112.277344 165.199219 109.601562 164.71875 C 107.351562 164.324219 105.226562 165.515625 104.59375 167.367188 C 104.542969 165.617188 103.300781 163.957031 101.042969 163.5625 C 98.664062 163.132812 96.179688 164.488281 95.582031 167.882812 L 93.902344 177.273438 L 111.757812 180.460938 Z M 113.484375 170.773438 " fill-opacity="1" fill-rule="nonzero"/></svg>