<svg xmlns="http://www.w3.org/2000/svg" xmlns:xlink="http://www.w3.org/1999/xlink" width="500" zoomAndPan="magnify" viewBox="0 0 375 374.999991" height="500" preserveAspectRatio="xMidYMid meet" version="1.0"><defs><clipPath id="5664c3a146"><path d="M 77.714844 77.714844 L 297.464844 77.714844 L 297.464844 297.464844 L 77.714844 297.464844 Z M 77.714844 77.714844 " clip-rule="nonzero"/></clipPath></defs><g clip-path="url(#5664c3a146)"><path fill="#263a74" d="M 187.589844 297.464844 C 248.277344 297.464844 297.464844 248.277344 297.464844 187.589844 C 297.464844 126.90625 248.277344 77.714844 187.589844 77.714844 C 126.90625 77.714844 77.714844 126.90625 77.714844 187.589844 C 77.714844 248.277344 126.90625 297.464844 187.589844 297.464844 " fill-opacity="1" fill-rule="nonzero"/></g><path fill="#fff45f" d="M 218.164062 208.292969 L 200.359375 190.492188 C 201.152344 189.046875 201.550781 187.457031 201.679688 185.617188 L 226.472656 185.617188 C 226.34375 194.183594 223.308594 202.097656 218.164062 208.292969 Z M 193.511719 196.300781 C 195.089844 195.769531 196.542969 194.976562 197.734375 193.796875 L 215.273438 211.335938 C 211.183594 215.292969 206.046875 218.324219 200.5 220.035156 Z M 164.507812 211.855469 L 182.046875 194.324219 C 183.105469 195.25 184.417969 195.902344 185.738281 196.433594 L 178.484375 220.167969 C 173.082031 218.324219 168.332031 215.546875 164.507812 211.855469 Z M 152.898438 187.070312 L 177.8125 187.070312 C 178.078125 188.394531 178.609375 189.707031 179.269531 190.898438 L 161.464844 208.699219 C 156.460938 202.769531 153.296875 195.25 152.898438 187.070312 Z M 161.738281 160.964844 L 179.402344 178.636719 C 178.609375 179.828125 178.078125 181.273438 177.824219 182.726562 L 152.910156 182.726562 C 153.4375 174.558594 156.601562 167.039062 161.738281 160.976562 Z M 212.890625 156.480469 L 195.75 174.671875 C 194.425781 173.875 193.113281 173.347656 191.527344 173.09375 L 191.527344 148.167969 C 199.699219 148.566406 207.082031 151.597656 212.882812 156.480469 Z M 182.300781 175.464844 L 164.628906 157.933594 C 170.691406 152.390625 178.609375 148.707031 187.304688 148.179688 L 187.304688 173.105469 C 185.464844 173.5 183.746094 174.425781 182.300781 175.472656 Z M 226.34375 181.394531 L 201.152344 181.394531 C 200.753906 179.941406 199.972656 178.628906 199.046875 177.4375 L 216.054688 159.378906 C 221.722656 165.179688 225.546875 172.828125 226.34375 181.394531 Z M 237.808594 190.367188 C 241.5 190.367188 244.53125 187.335938 244.53125 183.511719 C 244.53125 179.6875 241.5 176.652344 237.808594 176.652344 C 236.617188 176.652344 235.4375 176.917969 234.511719 177.578125 C 233.851562 173.621094 232.671875 169.796875 231.082031 166.367188 C 231.875 166.238281 232.660156 165.972656 233.320312 165.574219 C 236.351562 163.855469 237.277344 159.777344 235.292969 156.480469 C 233.453125 153.183594 229.363281 151.992188 226.332031 153.710938 C 225.539062 154.242188 224.746094 154.894531 224.359375 155.6875 C 222.382812 153.316406 220.136719 151.199219 217.765625 149.226562 C 218.945312 148.695312 219.871094 147.78125 220.664062 146.589844 C 222.640625 143.296875 221.722656 139.074219 218.425781 137.097656 C 215.261719 135.125 211.039062 136.171875 208.933594 139.46875 C 208.140625 140.660156 207.886719 141.972656 207.886719 143.296875 C 203.929688 141.574219 199.707031 140.394531 195.363281 139.734375 C 195.890625 138.675781 196.15625 137.484375 196.15625 136.171875 C 196.15625 132.082031 193.125 128.789062 189.300781 128.789062 C 185.476562 128.789062 182.441406 132.082031 182.441406 136.171875 C 182.441406 137.496094 182.707031 138.675781 183.238281 139.734375 C 178.882812 140.261719 174.792969 141.441406 170.976562 143.164062 C 171.109375 141.71875 170.84375 140.132812 169.917969 138.675781 C 167.945312 135.246094 163.589844 133.925781 160.296875 135.777344 C 157 137.617188 156.074219 142.105469 158.058594 145.53125 C 158.851562 146.988281 160.164062 148.035156 161.617188 148.695312 C 158.851562 150.804688 156.347656 153.183594 154.230469 155.949219 C 153.703125 154.902344 152.777344 153.976562 151.730469 153.316406 C 148.433594 151.34375 144.078125 152.257812 142.105469 155.421875 C 140.132812 158.585938 141.179688 162.941406 144.605469 164.914062 C 145.664062 165.574219 146.84375 165.960938 148.035156 165.960938 C 146.449219 169.523438 145.269531 173.347656 144.605469 177.4375 C 143.550781 176.777344 142.367188 176.511719 141.046875 176.511719 C 137.351562 176.511719 134.320312 179.542969 134.320312 183.367188 C 134.320312 187.195312 137.351562 190.226562 141.046875 190.226562 C 142.238281 190.226562 143.285156 189.960938 144.210938 189.433594 C 144.605469 193.390625 145.53125 197.214844 146.84375 200.898438 C 145.65625 200.898438 144.476562 201.164062 143.417969 201.824219 C 140.121094 203.664062 139.0625 207.886719 140.914062 211.183594 C 142.765625 214.480469 146.976562 215.527344 150.273438 213.6875 C 151.199219 213.15625 151.992188 212.363281 152.511719 211.582031 C 154.761719 214.746094 157.394531 217.511719 160.296875 219.882812 C 159.371094 220.410156 158.585938 221.203125 158.058594 222.121094 C 156.082031 225.417969 157.132812 229.636719 160.296875 231.480469 C 163.457031 233.320312 167.679688 232.40625 169.65625 229.230469 C 170.183594 228.304688 170.582031 227.257812 170.582031 226.332031 C 172.15625 226.992188 173.746094 227.65625 175.332031 228.183594 L 173.226562 235.039062 L 173.09375 244.136719 L 204.46875 244.136719 L 204.335938 235.039062 L 202.363281 228.449219 C 203.554688 228.050781 204.867188 227.65625 206.054688 227.125 C 206.1875 228.050781 206.453125 228.96875 206.847656 229.761719 C 208.691406 232.925781 212.914062 233.984375 216.078125 232.132812 C 219.375 230.289062 220.429688 226.066406 218.578125 222.902344 C 218.050781 222.109375 217.523438 221.449219 216.859375 220.929688 C 219.757812 218.691406 222.527344 216.046875 224.773438 213.015625 C 225.304688 214.203125 226.097656 215.253906 227.277344 215.914062 C 230.441406 217.753906 234.53125 216.707031 236.503906 213.542969 C 238.480469 210.378906 237.5625 206.15625 234.398438 204.316406 C 233.210938 203.523438 231.898438 203.269531 230.574219 203.390625 C 233.078125 199.035156 234.398438 194.425781 234.796875 189.675781 C 235.722656 190.074219 236.769531 190.335938 237.828125 190.335938 Z M 237.808594 190.367188 " fill-opacity="1" fill-rule="nonzero"/><path fill="#ffffff" d="M 259.058594 152.277344 L 257.554688 149.347656 L 267.648438 144.179688 L 269.152344 147.109375 C 270.851562 150.425781 269.539062 153.296875 266.679688 154.761719 C 263.945312 156.164062 260.6875 155.484375 259.050781 152.277344 M 256.039062 153.835938 C 258.632812 158.890625 263.617188 160.761719 268.480469 158.269531 C 273.355469 155.777344 274.769531 150.628906 272.175781 145.5625 L 268.917969 139.207031 L 252.773438 147.464844 L 256.027344 153.835938 Z M 251.441406 144.769531 L 265.144531 132.898438 L 262.621094 129.988281 L 254.003906 137.445312 L 257.105469 123.628906 L 254.511719 120.628906 L 240.808594 132.5 L 243.332031 135.421875 L 252.273438 127.679688 L 249 141.960938 L 251.429688 144.78125 Z M 238.664062 122.347656 L 234.054688 119.070312 L 240.878906 114.351562 L 238.664062 122.359375 Z M 240.28125 131.433594 L 245.09375 112.601562 L 241.144531 109.792969 L 224.917969 120.507812 L 228.507812 123.058594 L 231.214844 121.21875 L 237.554688 125.726562 L 236.679688 128.878906 L 240.269531 131.433594 Z M 224.347656 120.457031 L 225.753906 117.363281 L 218.761719 114.207031 L 224.835938 100.78125 L 221.328125 99.191406 L 213.859375 115.714844 L 224.359375 120.464844 Z M 204.53125 113.515625 C 209.300781 114.617188 212.160156 112.714844 212.914062 109.476562 C 214.4375 102.875 203.859375 102.417969 204.5 99.609375 C 204.742188 98.550781 205.8125 98.042969 207.429688 98.417969 C 209.230469 98.835938 211 99.882812 212.128906 101.542969 L 214.855469 99.273438 C 213.484375 97.257812 211.347656 95.867188 208.539062 95.222656 C 204.378906 94.269531 201.273438 96.109375 200.59375 99.058594 C 199.054688 105.714844 209.730469 105.917969 209.007812 109.039062 C 208.773438 110.046875 207.542969 110.769531 205.476562 110.292969 C 203.035156 109.722656 201.355469 108.195312 200.410156 106.609375 L 197.714844 109 C 198.976562 111.042969 201.140625 112.742188 204.539062 113.527344 M 194.609375 111.613281 L 195.984375 93.527344 L 192.136719 93.230469 L 190.765625 111.320312 Z M 174.660156 112.386719 L 173.359375 105.082031 L 178.300781 93.320312 L 173.96875 94.09375 L 170.855469 102.050781 L 165.136719 95.671875 L 160.804688 96.445312 L 169.574219 105.765625 L 170.875 113.070312 L 174.671875 112.386719 Z M 163.367188 115.113281 L 162.125 111.960938 L 153.773438 115.246094 L 152.269531 111.421875 L 160.4375 108.195312 L 159.195312 105.042969 L 151.027344 108.265625 L 149.621094 104.695312 L 157.976562 101.398438 L 156.734375 98.234375 L 144.789062 102.945312 L 151.445312 119.8125 L 163.378906 115.105469 Z M 148.929688 121.453125 L 138.421875 106.667969 L 135.277344 108.90625 L 141.878906 118.195312 L 128.429688 113.792969 L 125.195312 116.089844 L 135.707031 130.871094 L 138.847656 128.632812 L 131.992188 119 L 145.898438 123.621094 L 148.929688 121.460938 Z M 125.785156 137.679688 C 123.597656 140.210938 120.242188 140.140625 117.6875 137.933594 C 115.113281 135.707031 114.59375 132.410156 116.78125 129.875 C 118.96875 127.351562 122.328125 127.375 124.902344 129.601562 C 127.453125 131.808594 127.972656 135.144531 125.785156 137.679688 M 128.378906 139.917969 C 131.980469 135.765625 131.636719 130.179688 127.503906 126.601562 C 123.375 123.019531 117.800781 123.476562 114.199219 127.628906 C 110.617188 131.757812 110.964844 137.34375 115.09375 140.914062 C 119.222656 144.484375 124.800781 144.039062 128.378906 139.90625 M 119.144531 154.535156 C 120.789062 150.894531 119.722656 147.902344 118.207031 145.789062 L 115.378906 148.148438 C 116.425781 149.460938 116.792969 151.414062 116.019531 153.121094 C 114.667969 156.125 111.371094 157.261719 108.246094 155.847656 C 105.125 154.433594 103.8125 151.210938 105.164062 148.21875 C 105.9375 146.511719 107.675781 145.503906 109.324219 145.410156 L 109.203125 141.71875 C 106.617188 141.953125 103.6875 143.164062 102.039062 146.804688 C 99.800781 151.757812 101.53125 157.160156 106.609375 159.460938 C 111.695312 161.761719 116.894531 159.492188 119.132812 154.527344 " fill-opacity="1" fill-rule="nonzero"/><path fill="#ffffff" d="M 239.324219 265.113281 L 235.316406 258.867188 L 235.367188 246.109375 L 231.652344 248.488281 L 231.835938 257.027344 L 224.105469 253.324219 L 220.402344 255.703125 L 232.070312 260.953125 L 236.078125 267.199219 Z M 217.085938 265.5625 L 213.308594 267.046875 L 211.507812 262.488281 L 215.285156 261.003906 C 216.726562 260.433594 218.152344 260.859375 218.710938 262.285156 C 219.269531 263.710938 218.519531 264.992188 217.085938 265.5625 M 226.992188 272.234375 L 220.664062 267.300781 C 222.3125 266.160156 223.554688 263.820312 222.382812 260.839844 C 221.144531 257.707031 218.089844 256.253906 214.582031 257.636719 L 206.6875 260.75 L 213.339844 277.617188 L 216.929688 276.203125 L 214.570312 270.210938 L 217.207031 269.171875 L 222.882812 273.863281 L 227.003906 272.234375 Z M 200.929688 273.304688 L 195.324219 274.015625 L 197.144531 265.917969 L 200.9375 273.304688 Z M 208.273438 278.898438 L 199.054688 261.785156 L 194.253906 262.398438 L 189.585938 281.269531 L 193.960938 280.710938 L 194.703125 277.515625 L 202.414062 276.527344 L 203.910156 279.4375 L 208.285156 278.878906 Z M 179.585938 270.554688 L 175.535156 270.25 L 175.910156 265.367188 L 179.960938 265.671875 C 181.507812 265.785156 182.605469 266.800781 182.484375 268.320312 C 182.371094 269.835938 181.128906 270.667969 179.585938 270.554688 M 185.585938 280.882812 L 182.046875 273.691406 C 184.03125 273.375 186.167969 271.828125 186.410156 268.625 C 186.664062 265.257812 184.550781 262.621094 180.785156 262.335938 L 172.320312 261.695312 L 170.945312 279.773438 L 174.792969 280.070312 L 175.28125 273.640625 L 178.109375 273.851562 L 181.171875 280.546875 Z M 159.796875 273.050781 L 155.074219 271.453125 L 156.429688 267.453125 L 161.148438 269.050781 C 162.59375 269.539062 163.050781 270.730469 162.6875 271.808594 C 162.269531 273.050781 161.191406 273.515625 159.796875 273.039062 M 162.085938 265.867188 L 157.496094 264.320312 L 158.757812 260.578125 L 163.347656 262.121094 C 164.589844 262.539062 165.085938 263.597656 164.71875 264.6875 C 164.355469 265.765625 163.316406 266.285156 162.085938 265.867188 M 159.675781 276.539062 C 162.949219 277.648438 165.371094 276.171875 166.238281 273.589844 C 166.96875 271.421875 166.105469 269.152344 164.375 268.246094 C 166.105469 268.460938 167.933594 267.472656 168.667969 265.308594 C 169.441406 263.019531 168.472656 260.363281 165.207031 259.253906 L 156.164062 256.191406 L 150.34375 273.363281 L 159.675781 276.519531 Z M 144.871094 270.425781 L 153.144531 254.289062 L 149.703125 252.527344 L 141.433594 268.664062 Z M 136.9375 265.90625 L 138.910156 263.140625 L 132.664062 258.695312 L 141.210938 246.679688 L 138.066406 244.441406 L 127.554688 259.222656 L 136.945312 265.90625 Z M 136.9375 265.90625 " fill-opacity="1" fill-rule="nonzero"/></svg>