<svg xmlns="http://www.w3.org/2000/svg" xmlns:xlink="http://www.w3.org/1999/xlink" width="500" zoomAndPan="magnify" viewBox="0 0 375 374.999991" height="500" preserveAspectRatio="xMidYMid meet" version="1.0"><defs><clipPath id="937f82fa91"><path d="M 76.601562 76.601562 L 298.601562 76.601562 L 298.601562 298.601562 L 76.601562 298.601562 Z M 76.601562 76.601562 " clip-rule="nonzero"/></clipPath></defs><g clip-path="url(#937f82fa91)"><path fill="#f26648" d="M 187.601562 298.601562 C 248.90625 298.601562 298.601562 248.90625 298.601562 187.601562 C 298.601562 126.292969 248.90625 76.601562 187.601562 76.601562 C 126.292969 76.601562 76.601562 126.292969 76.601562 187.601562 C 76.601562 248.90625 126.292969 298.601562 187.601562 298.601562 " fill-opacity="1" fill-rule="nonzero"/><path stroke-linecap="round" transform="matrix(1.027778, 0, 0, 1.027778, 76.599698, 76.599693)" fill="none" stroke-linejoin="round" d="M 108.001824 215.621771 L 108.001824 215.621771 M 0.381882 108.001828 L 0.381882 108.001828 M 108.001824 0.381886 L 108.001824 0.381886 M 215.621766 108.001828 L 215.621766 108.001828 " stroke="#231f20" stroke-width="0.25" stroke-opacity="1" stroke-miterlimit="4"/></g><path fill="#ffffff" d="M 155.585938 177.148438 L 140.792969 177.148438 C 136.078125 179.078125 132.859375 183.582031 132.859375 193.4375 C 132.859375 207.796875 139.726562 227.519531 148.296875 227.519531 C 156.867188 227.519531 163.734375 207.589844 163.734375 193.4375 C 163.519531 183.582031 160.300781 179.078125 155.585938 177.148438 " fill-opacity="1" fill-rule="nonzero"/><path fill="#ffffff" d="M 233.078125 156.765625 C 242.625 156.765625 252.164062 156.335938 262.011719 155.480469 C 263.800781 155.265625 264.992188 154.195312 264.691406 153.128906 C 264.394531 152.058594 262.90625 150.992188 261.414062 151.195312 C 192.832031 157.199219 126.324219 139.839844 125.429688 139.621094 C 123.9375 139.191406 122.449219 139.839844 121.851562 140.90625 C 121.257812 141.976562 122.152344 143.261719 123.640625 143.691406 C 123.9375 143.691406 132.582031 146.046875 146.601562 148.625 L 146.601562 159.765625 L 138.257812 159.765625 L 138.257812 173.488281 L 160.324219 173.488281 L 160.324219 159.765625 L 152.273438 159.765625 L 152.273438 149.695312 C 171.359375 152.914062 197.898438 156.335938 227.128906 156.765625 " fill-opacity="1" fill-rule="nonzero"/><path fill="#ffffff" d="M 197.640625 182.945312 L 182.851562 182.945312 C 178.132812 184.875 174.917969 189.378906 174.917969 199.234375 C 174.917969 213.59375 181.773438 233.316406 190.355469 233.316406 C 198.9375 233.316406 205.792969 213.386719 205.792969 199.234375 C 205.574219 189.378906 202.359375 184.875 197.640625 182.945312 " fill-opacity="1" fill-rule="nonzero"/><path fill="#ffffff" d="M 188.289062 152.214844 L 188.214844 164.9375 L 182.214844 164.9375 L 182.214844 178.65625 L 198.074219 178.65625 L 198.074219 164.9375 L 192.285156 164.9375 L 192.285156 152.089844 " fill-opacity="1" fill-rule="nonzero"/><path fill="#ffffff" d="M 237.507812 184.710938 L 222.71875 184.710938 C 218 186.644531 214.785156 191.144531 214.785156 201 C 214.785156 215.359375 221.640625 235.082031 230.222656 235.082031 C 238.804688 235.082031 245.660156 215.15625 245.660156 201 C 245.441406 191.144531 242.226562 186.644531 237.507812 184.710938 " fill-opacity="1" fill-rule="nonzero"/><path fill="#ffffff" d="M 228.144531 153.980469 L 228.074219 166.714844 L 222.070312 166.714844 L 222.070312 180.425781 L 237.929688 180.425781 L 237.929688 166.714844 L 232.144531 166.714844 L 232.144531 153.859375 " fill-opacity="1" fill-rule="nonzero"/><path fill="#ffffff" d="M 227.179688 109.941406 L 223.542969 108.070312 L 225.800781 103.671875 L 229.449219 105.542969 C 230.847656 106.261719 231.464844 107.628906 230.765625 108.996094 C 230.066406 110.363281 228.585938 110.660156 227.191406 109.941406 M 228.730469 121.902344 L 228.257812 113.816406 C 230.230469 114.296875 232.820312 113.691406 234.300781 110.804688 C 235.863281 107.773438 234.929688 104.484375 231.527344 102.746094 L 223.902344 98.832031 L 215.535156 115.132812 L 219.007812 116.910156 L 221.980469 111.113281 L 224.527344 112.417969 L 224.753906 119.859375 Z M 212.8125 114.464844 L 213.746094 111.164062 L 205.03125 108.6875 L 206.171875 104.6875 L 214.703125 107.113281 L 215.636719 103.816406 L 207.105469 101.390625 L 208.164062 97.660156 L 216.882812 100.144531 L 217.828125 96.847656 L 205.359375 93.300781 L 200.34375 110.925781 L 212.8125 114.472656 Z M 199.265625 110.640625 L 191.742188 100.722656 L 199.234375 92.3125 L 194.425781 92.191406 L 187.734375 100.207031 L 187.9375 92.027344 L 184.042969 91.925781 L 183.582031 110.238281 L 187.476562 110.339844 L 187.621094 104.710938 L 189.089844 103.042969 L 194.453125 110.515625 L 199.253906 110.640625 Z M 175.277344 111.328125 L 173.960938 103.949219 L 178.945312 92.058594 L 174.566406 92.839844 L 171.433594 100.875 L 165.644531 94.429688 L 161.269531 95.222656 L 170.128906 104.628906 L 171.441406 112.007812 L 175.277344 111.316406 Z M 155.070312 113.785156 L 152.039062 115.152344 L 147.3125 104.71875 L 150.34375 103.34375 C 153.777344 101.789062 156.613281 103.25 157.949219 106.199219 C 159.234375 109.027344 158.378906 112.285156 155.070312 113.773438 M 156.480469 116.910156 C 161.710938 114.535156 163.835938 109.589844 161.566406 104.566406 C 159.285156 99.53125 154.15625 97.855469 148.925781 100.21875 L 142.347656 103.199219 L 149.910156 119.890625 L 156.488281 116.910156 Z M 156.480469 116.910156 " fill-opacity="1" fill-rule="nonzero"/><path fill="#ffffff" d="M 239.863281 265.917969 L 235.8125 259.605469 L 235.863281 246.71875 L 232.113281 249.121094 L 232.296875 257.746094 L 224.488281 254.003906 L 220.746094 256.410156 L 232.535156 261.710938 L 236.582031 268.023438 Z M 217.394531 266.367188 L 213.582031 267.867188 L 211.761719 263.265625 L 215.574219 261.765625 C 217.035156 261.1875 218.472656 261.621094 219.039062 263.058594 C 219.605469 264.496094 218.84375 265.792969 217.394531 266.367188 M 227.40625 273.109375 L 221.011719 268.125 C 222.675781 266.976562 223.929688 264.609375 222.75 261.601562 C 221.496094 258.433594 218.414062 256.964844 214.867188 258.363281 L 206.890625 261.507812 L 213.613281 278.546875 L 217.242188 277.117188 L 214.855469 271.066406 L 217.519531 270.015625 L 223.253906 274.753906 L 227.414062 273.109375 Z M 201.074219 274.191406 L 195.410156 274.910156 L 197.25 266.726562 L 201.085938 274.191406 Z M 208.496094 279.84375 L 199.183594 262.554688 L 194.332031 263.171875 L 189.613281 282.238281 L 194.035156 281.671875 L 194.785156 278.445312 L 202.574219 277.449219 L 204.085938 280.386719 L 208.503906 279.820312 Z M 179.511719 271.414062 L 175.421875 271.105469 L 175.800781 266.171875 L 179.890625 266.480469 C 181.453125 266.59375 182.5625 267.621094 182.441406 269.152344 C 182.328125 270.683594 181.074219 271.527344 179.511719 271.414062 M 185.574219 281.847656 L 182 274.582031 C 184.003906 274.261719 186.160156 272.699219 186.40625 269.460938 C 186.664062 266.058594 184.527344 263.398438 180.722656 263.109375 L 172.171875 262.464844 L 170.785156 280.726562 L 174.671875 281.023438 L 175.164062 274.527344 L 178.019531 274.746094 L 181.113281 281.507812 Z M 159.519531 273.933594 L 154.75 272.320312 L 156.117188 268.28125 L 160.886719 269.894531 C 162.347656 270.386719 162.808594 271.589844 162.441406 272.679688 C 162.019531 273.933594 160.929688 274.40625 159.519531 273.921875 M 161.832031 266.675781 L 157.199219 265.113281 L 158.472656 261.332031 L 163.109375 262.894531 C 164.363281 263.316406 164.867188 264.386719 164.496094 265.484375 C 164.125 266.574219 163.078125 267.097656 161.832031 266.675781 M 159.398438 277.457031 C 162.707031 278.578125 165.152344 277.089844 166.027344 274.476562 C 166.765625 272.289062 165.894531 269.996094 164.144531 269.082031 C 165.894531 269.296875 167.742188 268.300781 168.484375 266.113281 C 169.265625 263.800781 168.289062 261.117188 164.988281 259.996094 L 155.851562 256.902344 L 149.972656 274.25 L 159.398438 277.4375 Z M 144.441406 271.28125 L 152.800781 254.980469 L 149.324219 253.203125 L 140.96875 269.503906 Z M 136.425781 266.71875 L 138.421875 263.921875 L 132.109375 259.429688 L 140.742188 247.292969 L 137.566406 245.03125 L 126.949219 259.964844 L 136.4375 266.71875 Z M 136.425781 266.71875 " fill-opacity="1" fill-rule="nonzero"/></svg>