<svg xmlns="http://www.w3.org/2000/svg" xmlns:xlink="http://www.w3.org/1999/xlink" width="500" zoomAndPan="magnify" viewBox="0 0 375 374.999991" height="500" preserveAspectRatio="xMidYMid meet" version="1.0"><defs><clipPath id="8956a3c30b"><path d="M 75.203125 75.203125 L 299.453125 75.203125 L 299.453125 299.453125 L 75.203125 299.453125 Z M 75.203125 75.203125 " clip-rule="nonzero"/></clipPath></defs><g clip-path="url(#8956a3c30b)"><path fill="#3c5caa" d="M 187.5 299.792969 C 249.523438 299.792969 299.792969 249.523438 299.792969 187.5 C 299.792969 125.476562 249.523438 75.203125 187.5 75.203125 C 125.476562 75.203125 75.203125 125.476562 75.203125 187.5 C 75.203125 249.523438 125.476562 299.792969 187.5 299.792969 " fill-opacity="1" fill-rule="nonzero"/></g><path fill="#fff45f" d="M 166.089844 228.914062 L 166.089844 232.242188 L 204.355469 232.242188 L 204.355469 228.914062 C 204.355469 228.070312 203.667969 227.386719 202.824219 227.386719 L 167.621094 227.386719 C 166.777344 227.386719 166.089844 228.070312 166.089844 228.914062 Z M 166.089844 228.914062 " fill-opacity="1" fill-rule="nonzero"/><path fill="#fff45f" d="M 188.539062 184.535156 L 181.914062 184.535156 L 181.914062 178.589844 C 181.914062 176.757812 183.382812 175.273438 185.234375 175.273438 C 187.082031 175.273438 188.539062 176.78125 188.539062 178.589844 Z M 188.539062 202.253906 L 181.914062 202.253906 L 181.914062 196.304688 C 181.914062 194.476562 183.382812 192.988281 185.234375 192.988281 C 187.082031 192.988281 188.539062 194.476562 188.539062 196.304688 Z M 188.539062 219.980469 L 181.914062 219.980469 L 181.914062 214.035156 C 181.914062 212.203125 183.382812 210.71875 185.234375 210.71875 C 187.082031 210.71875 188.539062 212.203125 188.539062 214.035156 Z M 197.929688 169.53125 L 172.515625 169.53125 L 167.941406 225.730469 L 202.503906 225.730469 Z M 197.929688 169.53125 " fill-opacity="1" fill-rule="nonzero"/><path fill="#fff45f" d="M 170.507812 163.160156 L 199.933594 163.160156 L 199.933594 167.867188 L 170.507812 167.867188 Z M 170.507812 163.160156 " fill-opacity="1" fill-rule="nonzero"/><path fill="#fff45f" d="M 214.449219 149.101562 L 219.347656 148.320312 C 219.792969 148.25 220.105469 147.820312 220.035156 147.375 C 219.960938 146.917969 219.546875 146.617188 219.085938 146.6875 L 214.191406 147.46875 C 213.742188 147.542969 213.429688 147.96875 213.503906 148.414062 C 213.578125 148.871094 214.003906 149.171875 214.449219 149.101562 " fill-opacity="1" fill-rule="nonzero"/><path fill="#fff45f" d="M 224.222656 147.542969 L 226.523438 147.175781 C 226.96875 147.105469 227.28125 146.6875 227.207031 146.230469 C 227.136719 145.785156 226.71875 145.472656 226.261719 145.542969 L 223.964844 145.910156 C 223.515625 145.980469 223.207031 146.40625 223.277344 146.855469 C 223.351562 147.3125 223.777344 147.613281 224.222656 147.542969 " fill-opacity="1" fill-rule="nonzero"/><path fill="#fff45f" d="M 204.667969 150.660156 L 209.5625 149.878906 C 210.011719 149.808594 210.324219 149.382812 210.25 148.933594 C 210.175781 148.476562 209.761719 148.175781 209.304688 148.25 L 204.40625 149.027344 C 203.960938 149.101562 203.648438 149.527344 203.71875 149.972656 C 203.792969 150.433594 204.21875 150.734375 204.667969 150.660156 " fill-opacity="1" fill-rule="nonzero"/><path fill="#fff45f" d="M 229.640625 155.390625 L 227.582031 155.390625 C 227.125 155.390625 226.761719 155.753906 226.761719 156.214844 C 226.761719 156.671875 227.125 157.035156 227.582031 157.035156 L 229.640625 157.035156 C 230.097656 157.035156 230.460938 156.671875 230.460938 156.214844 C 230.460938 155.753906 230.089844 155.390625 229.640625 155.390625 " fill-opacity="1" fill-rule="nonzero"/><path fill="#fff45f" d="M 206.933594 156.222656 C 206.933594 156.679688 207.296875 157.042969 207.753906 157.042969 L 212.703125 157.042969 C 213.160156 157.042969 213.523438 156.671875 213.523438 156.222656 C 213.523438 155.777344 213.152344 155.402344 212.703125 155.402344 L 207.753906 155.402344 C 207.296875 155.402344 206.933594 155.777344 206.933594 156.222656 " fill-opacity="1" fill-rule="nonzero"/><path fill="#fff45f" d="M 222.621094 155.390625 L 217.671875 155.390625 C 217.214844 155.390625 216.851562 155.753906 216.851562 156.214844 C 216.851562 156.671875 217.214844 157.035156 217.671875 157.035156 L 222.621094 157.035156 C 223.082031 157.035156 223.445312 156.671875 223.445312 156.214844 C 223.445312 155.753906 223.070312 155.390625 222.621094 155.390625 " fill-opacity="1" fill-rule="nonzero"/><path fill="#fff45f" d="M 204.394531 163.40625 L 209.292969 164.1875 C 209.738281 164.261719 210.167969 163.949219 210.238281 163.5 C 210.3125 163.054688 210 162.628906 209.554688 162.554688 L 204.667969 161.777344 C 204.207031 161.691406 203.792969 162.015625 203.71875 162.460938 C 203.648438 162.910156 203.960938 163.335938 204.40625 163.40625 " fill-opacity="1" fill-rule="nonzero"/><path fill="#fff45f" d="M 226.53125 165.257812 L 224.234375 164.894531 C 223.777344 164.8125 223.359375 165.132812 223.289062 165.582031 C 223.214844 166.027344 223.527344 166.453125 223.972656 166.527344 L 226.273438 166.890625 C 226.71875 166.964844 227.144531 166.664062 227.21875 166.207031 C 227.292969 165.757812 226.980469 165.332031 226.53125 165.257812 " fill-opacity="1" fill-rule="nonzero"/><path fill="#fff45f" d="M 219.335938 164.113281 L 214.441406 163.335938 C 213.992188 163.261719 213.566406 163.574219 213.492188 164.023438 C 213.421875 164.46875 213.734375 164.894531 214.179688 164.96875 L 219.066406 165.746094 C 219.515625 165.820312 219.941406 165.519531 220.011719 165.0625 C 220.085938 164.605469 219.773438 164.1875 219.328125 164.113281 " fill-opacity="1" fill-rule="nonzero"/><path fill="#fff45f" d="M 160.890625 149.878906 L 165.789062 150.660156 C 166.234375 150.734375 166.664062 150.421875 166.734375 149.972656 C 166.808594 149.527344 166.507812 149.101562 166.050781 149.027344 L 161.164062 148.25 C 160.703125 148.164062 160.289062 148.476562 160.214844 148.933594 C 160.144531 149.382812 160.457031 149.808594 160.902344 149.878906 " fill-opacity="1" fill-rule="nonzero"/><path fill="#fff45f" d="M 151.109375 148.320312 L 156.003906 149.101562 C 156.453125 149.171875 156.878906 148.863281 156.949219 148.414062 C 157.023438 147.96875 156.722656 147.542969 156.265625 147.46875 L 151.378906 146.6875 C 150.910156 146.617188 150.503906 146.917969 150.433594 147.375 C 150.359375 147.820312 150.671875 148.25 151.117188 148.320312 " fill-opacity="1" fill-rule="nonzero"/><path fill="#fff45f" d="M 143.914062 147.175781 L 146.210938 147.542969 C 146.65625 147.613281 147.082031 147.300781 147.15625 146.855469 C 147.230469 146.40625 146.917969 145.980469 146.46875 145.910156 L 144.171875 145.542969 C 143.714844 145.472656 143.300781 145.773438 143.226562 146.230469 C 143.152344 146.679688 143.464844 147.105469 143.914062 147.175781 " fill-opacity="1" fill-rule="nonzero"/><path fill="#fff45f" d="M 153.601562 156.222656 C 153.601562 155.765625 153.238281 155.402344 152.78125 155.402344 L 147.832031 155.402344 C 147.375 155.402344 147.011719 155.777344 147.011719 156.222656 C 147.011719 156.671875 147.386719 157.042969 147.832031 157.042969 L 152.78125 157.042969 C 153.238281 157.042969 153.601562 156.671875 153.601562 156.222656 " fill-opacity="1" fill-rule="nonzero"/><path fill="#fff45f" d="M 143.695312 156.222656 C 143.695312 155.765625 143.332031 155.402344 142.871094 155.402344 L 140.824219 155.402344 C 140.367188 155.402344 140.003906 155.777344 140.003906 156.222656 C 140.003906 156.671875 140.367188 157.042969 140.824219 157.042969 L 142.871094 157.042969 C 143.332031 157.042969 143.695312 156.671875 143.695312 156.222656 " fill-opacity="1" fill-rule="nonzero"/><path fill="#fff45f" d="M 163.511719 156.222656 C 163.511719 155.765625 163.148438 155.402344 162.691406 155.402344 L 157.742188 155.402344 C 157.285156 155.402344 156.921875 155.777344 156.921875 156.222656 C 156.921875 156.671875 157.292969 157.042969 157.742188 157.042969 L 162.691406 157.042969 C 163.148438 157.042969 163.511719 156.671875 163.511719 156.222656 " fill-opacity="1" fill-rule="nonzero"/><path fill="#fff45f" d="M 146.222656 164.894531 L 143.921875 165.257812 C 143.476562 165.332031 143.164062 165.746094 143.238281 166.207031 C 143.308594 166.652344 143.734375 166.964844 144.183594 166.890625 L 146.480469 166.527344 C 146.929688 166.453125 147.238281 166.027344 147.167969 165.582031 C 147.09375 165.125 146.679688 164.8125 146.222656 164.894531 " fill-opacity="1" fill-rule="nonzero"/><path fill="#fff45f" d="M 156.003906 163.335938 L 151.109375 164.113281 C 150.660156 164.1875 150.347656 164.605469 150.421875 165.0625 C 150.496094 165.519531 150.929688 165.820312 151.367188 165.746094 L 156.265625 164.96875 C 156.710938 164.894531 157.023438 164.46875 156.949219 164.023438 C 156.878906 163.5625 156.441406 163.261719 156.003906 163.335938 " fill-opacity="1" fill-rule="nonzero"/><path fill="#fff45f" d="M 166.734375 162.460938 C 166.664062 162.003906 166.246094 161.703125 165.789062 161.777344 L 160.902344 162.554688 C 160.457031 162.628906 160.144531 163.054688 160.214844 163.5 C 160.289062 163.960938 160.714844 164.261719 161.164062 164.1875 L 166.050781 163.40625 C 166.496094 163.335938 166.808594 162.910156 166.734375 162.460938 " fill-opacity="1" fill-rule="nonzero"/><path fill="#fff45f" d="M 162.234375 233.882812 L 213.472656 233.882812 L 213.472656 239.21875 L 162.234375 239.21875 Z M 162.234375 233.882812 " fill-opacity="1" fill-rule="nonzero"/><path fill="#fff45f" d="M 180.75 161.503906 L 190.015625 161.503906 L 189.816406 150.027344 L 180.574219 150.191406 Z M 180.75 161.503906 " fill-opacity="1" fill-rule="nonzero"/><path fill="#fff45f" d="M 196.160156 148.257812 L 186.117188 139.796875 C 187.074219 139.429688 187.757812 138.515625 187.757812 137.445312 C 187.757812 136.050781 186.625 134.929688 185.234375 134.929688 C 183.839844 134.929688 182.714844 136.050781 182.714844 137.445312 C 182.714844 138.421875 183.289062 139.265625 184.109375 139.691406 L 174.210938 148.644531 L 196.171875 148.257812 Z M 196.160156 148.257812 " fill-opacity="1" fill-rule="nonzero"/><path fill="#fff45f" d="M 179.109375 161.503906 L 178.921875 150.203125 L 173.703125 150.308594 L 173.890625 161.503906 Z M 179.109375 161.503906 " fill-opacity="1" fill-rule="nonzero"/><path fill="#fff45f" d="M 191.667969 161.503906 L 196.886719 161.503906 L 196.691406 149.890625 L 191.472656 149.996094 Z M 191.667969 161.503906 " fill-opacity="1" fill-rule="nonzero"/><path fill="#d9d9d9" d="M 240.371094 266.730469 L 236.273438 260.34375 L 236.328125 247.308594 L 232.53125 249.738281 L 232.71875 258.464844 L 224.816406 254.679688 L 221.03125 257.113281 L 232.957031 262.476562 L 237.054688 268.863281 Z M 217.640625 267.1875 L 213.785156 268.707031 L 211.945312 264.046875 L 215.800781 262.527344 C 217.277344 261.945312 218.734375 262.382812 219.304688 263.839844 C 219.878906 265.296875 219.109375 266.605469 217.640625 267.1875 M 227.769531 274.007812 L 221.300781 268.964844 C 222.988281 267.800781 224.253906 265.410156 223.058594 262.363281 C 221.792969 259.160156 218.671875 257.671875 215.085938 259.085938 L 207.015625 262.269531 L 213.816406 279.507812 L 217.488281 278.0625 L 215.074219 271.9375 L 217.765625 270.878906 L 223.570312 275.671875 L 227.78125 274.007812 Z M 201.132812 275.101562 L 195.402344 275.828125 L 197.261719 267.550781 L 201.140625 275.101562 Z M 208.636719 280.820312 L 199.21875 263.328125 L 194.308594 263.953125 L 189.539062 283.242188 L 194.007812 282.667969 L 194.765625 279.40625 L 202.648438 278.394531 L 204.175781 281.371094 L 208.648438 280.796875 Z M 179.316406 272.292969 L 175.179688 271.980469 L 175.5625 266.988281 L 179.703125 267.300781 C 181.28125 267.417969 182.40625 268.457031 182.28125 270.003906 C 182.164062 271.554688 180.898438 272.40625 179.316406 272.292969 M 185.453125 282.847656 L 181.832031 275.496094 C 183.859375 275.171875 186.042969 273.59375 186.292969 270.316406 C 186.554688 266.875 184.390625 264.183594 180.542969 263.890625 L 171.894531 263.234375 L 170.488281 281.710938 L 174.417969 282.015625 L 174.917969 275.441406 L 177.808594 275.660156 L 180.9375 282.503906 Z M 159.09375 274.839844 L 154.269531 273.207031 L 155.652344 269.121094 L 160.476562 270.753906 C 161.953125 271.253906 162.421875 272.46875 162.046875 273.570312 C 161.621094 274.839844 160.515625 275.316406 159.09375 274.828125 M 161.433594 267.5 L 156.742188 265.917969 L 158.03125 262.09375 L 162.722656 263.671875 C 163.992188 264.097656 164.5 265.179688 164.125 266.292969 C 163.75 267.394531 162.691406 267.925781 161.433594 267.5 M 158.96875 278.40625 C 162.316406 279.539062 164.789062 278.03125 165.675781 275.390625 C 166.421875 273.175781 165.539062 270.859375 163.773438 269.933594 C 165.539062 270.152344 167.410156 269.140625 168.160156 266.925781 C 168.949219 264.589844 167.960938 261.875 164.625 260.742188 L 155.382812 257.609375 L 149.433594 275.164062 L 158.96875 278.386719 Z M 143.839844 272.15625 L 152.292969 255.667969 L 148.777344 253.867188 L 140.324219 270.359375 Z M 135.730469 267.539062 L 137.746094 264.710938 L 131.363281 260.167969 L 140.097656 247.890625 L 136.882812 245.601562 L 126.144531 260.710938 L 135.738281 267.539062 Z M 135.730469 267.539062 " fill-opacity="1" fill-rule="nonzero"/><path fill="#d9d9d9" d="M 264.265625 171.019531 L 281.828125 165.082031 L 280.570312 161.347656 L 269.539062 165.082031 L 277.8125 153.207031 L 276.515625 149.371094 L 258.960938 155.308594 L 260.222656 159.042969 L 271.667969 155.164062 L 263.050781 167.410156 L 264.265625 171.007812 Z M 255.636719 143.414062 C 253.785156 140.535156 254.824219 137.257812 257.734375 135.398438 C 260.65625 133.523438 264.046875 133.960938 265.886719 136.84375 C 267.738281 139.722656 266.742188 143.007812 263.808594 144.878906 C 260.90625 146.742188 257.484375 146.292969 255.636719 143.414062 M 252.683594 145.304688 C 255.71875 150.035156 261.28125 151.316406 265.980469 148.300781 C 270.679688 145.285156 271.84375 139.691406 268.820312 134.960938 C 265.804688 130.261719 260.230469 128.980469 255.53125 131.996094 C 250.832031 135.011719 249.667969 140.605469 252.683594 145.304688 M 243.4375 133.097656 L 253.835938 122.191406 L 257.734375 125.914062 L 260.128906 123.398438 L 249.429688 113.199219 L 247.035156 115.703125 L 250.957031 119.445312 L 240.558594 130.34375 L 243.429688 133.089844 Z M 237.378906 127.285156 L 239.394531 124.457031 L 233.011719 119.914062 L 241.746094 107.636719 L 238.53125 105.347656 L 227.789062 120.457031 L 237.386719 127.285156 Z M 224.347656 118.75 L 232.800781 102.25 L 229.289062 100.449219 L 220.835938 116.941406 L 224.347656 118.738281 Z M 217.933594 115.058594 L 222.996094 97.226562 L 217.652344 95.707031 L 210.261719 105.253906 L 208.992188 93.253906 L 203.667969 91.746094 L 198.605469 109.578125 L 202.398438 110.660156 L 205.945312 98.171875 L 207.433594 112.085938 L 209.085938 112.554688 L 217.664062 101.488281 L 214.117188 113.976562 Z M 190.972656 102.976562 L 185.191406 102.832031 L 188.28125 94.929688 Z M 197.535156 109.757812 L 190.867188 91.050781 L 185.929688 90.925781 L 178.296875 109.277344 L 182.800781 109.390625 L 184.046875 106.285156 L 191.992188 106.480469 L 193.050781 109.652344 L 197.554688 109.765625 Z M 177.351562 109.796875 L 173.183594 91.738281 L 169.3125 92.632812 L 170.945312 99.734375 L 162.410156 101.699219 L 160.765625 94.605469 L 156.929688 95.492188 L 161.101562 113.550781 L 164.945312 112.667969 L 163.199219 105.085938 L 171.738281 103.113281 L 173.484375 110.691406 Z M 147.789062 120.320312 L 139.660156 107.636719 L 144.191406 104.722656 L 142.320312 101.800781 L 129.875 109.777344 L 131.746094 112.699219 L 136.3125 109.777344 L 144.441406 122.453125 L 147.78125 120.308594 Z M 126.945312 123.59375 L 123.949219 126.453125 L 120.496094 122.824219 L 123.492188 119.964844 C 124.636719 118.875 126.152344 118.730469 127.234375 119.863281 C 128.304688 120.996094 128.097656 122.503906 126.945312 123.59375 M 138.902344 126.101562 L 131.007812 123.867188 C 132.132812 122.140625 132.414062 119.457031 130.144531 117.085938 C 127.765625 114.589844 124.3125 114.394531 121.515625 117.054688 L 115.234375 123.035156 L 128.023438 136.445312 L 130.875 133.722656 L 126.328125 128.960938 L 128.421875 126.964844 L 135.605469 129.21875 L 138.878906 126.089844 Z M 118.65625 144.515625 C 116.804688 147.394531 113.40625 147.820312 110.503906 145.960938 C 107.582031 144.089844 106.5625 140.824219 108.414062 137.945312 C 110.253906 135.0625 113.65625 134.605469 116.585938 136.476562 C 119.488281 138.339844 120.519531 141.636719 118.667969 144.515625 M 121.597656 146.40625 C 124.636719 141.675781 123.46875 136.082031 118.761719 133.066406 C 114.0625 130.050781 108.488281 131.332031 105.453125 136.0625 C 102.4375 140.761719 103.601562 146.367188 108.300781 149.382812 C 113 152.398438 118.574219 151.117188 121.589844 146.417969 M 112.988281 164.34375 L 105.722656 161.890625 L 108.601562 153.382812 L 105.316406 152.273438 L 102.4375 160.777344 L 98.722656 159.519531 L 101.667969 150.835938 L 98.382812 149.726562 L 94.179688 162.148438 L 111.742188 168.085938 L 113 164.355469 Z M 112.988281 164.34375 " fill-opacity="1" fill-rule="nonzero"/></svg>